<?xml version="1.0" standalone="no"?>
 <!DOCTYPE svg PUBLIC "-//W3C//DTD SVG 1.1//EN" 
 "http://www.w3.org/Graphics/SVG/1.1/DTD/svg11.dtd"> 
<svg xmlns="http://www.w3.org/2000/svg" version="1.1" 
    width="28.7985cm" height="10.6985cm" viewBox="0 0 113380 42120 ">
<title>SVG Picture created as Alice_40-Edge.Cuts.svg date 2019/02/21 21:38:07 </title>
  <desc>Picture generated by PCBNEW </desc>
<g style="fill:#000000; fill-opacity:1;stroke:#000000; stroke-opacity:1;
stroke-linecap:round; stroke-linejoin:round; "
 transform="translate(0 0) scale(1 1)">
</g>
<g style="fill:#000000; fill-opacity:0.0; 
stroke:#000000; stroke-width:-0.000393701; stroke-opacity:1; 
stroke-linecap:round; stroke-linejoin:round;">
</g>
<g style="fill:#C2C200; fill-opacity:0.0; 
stroke:#C2C200; stroke-width:-0.000393701; stroke-opacity:1; 
stroke-linecap:round; stroke-linejoin:round;">
</g>
<g style="fill:#C2C200; fill-opacity:0.0; 
stroke:#C2C200; stroke-width:59.0551; stroke-opacity:1; 
stroke-linecap:round; stroke-linejoin:round;">
<path d="M107381 4330
L107480 4330
" />
<path d="M103543 4330
L103149 4330
" />
<path d="M103543 4330
L103838 4330
" />
<path d="M101771 4330
L103149 4330
" />
<path d="M51968 37598
L51968 38779
" />
<path d="M55511 37598
L55511 38779
" />
<path d="M108464 4330
L107677 4330
" />
<path d="M107677 4330
L107480 4330
" />
<path d="M55118 35826
L52362 35826
" />
<path d="M57677 39173
L57086 39173
" />
<path d="M50984 39173
L50393 39173
" />
<path d="M51771 4330
L51574 4330
" />
<path d="M50984 39173
L51181 39173
" />
<path d="M109055 15157
L109055 16535
" />
<path d="M109055 20472
L109055 20669
" />
<path d="M104035 4921
L104035 5314
" />
<path d="M107185 4921
L107185 5314
" />
<path d="M51968 4527
L51968 5314
" />
<path d="M50590 4330
L51574 4330
" />
<path d="M55511 4527
L55511 5314
" />
<path d="M56889 4330
L55708 4330
" />
<path d="M56889 4330
L101771 4330
" />
<path d="M51968.5 4527.56 A196.85 196.85 0.0 0 0 51771.7 4330.71 " />
<path d="M55708.7 4330.71 A196.85 196.85 0.0 0 0 55511.8 4527.56 " />
<path d="M55315 5511.81 A196.85 196.85 0.0 0 0 55511.8 5314.96 " />
<path d="M51968.5 5314.96 A196.85 196.85 0.0 0 0 52165.4 5511.81 " />
<path d="M55314 5511
L52165 5511
" />
<path d="M104035 4921
L104035 4724
" />
<path d="M104429 5511
L104232 5511
" />
<path d="M106988 5511
L106791 5511
" />
<path d="M107185 4724
L107185 4921
" />
<path d="M106988 5511.81 A196.85 196.85 0.0 0 0 107185 5314.96 " />
<path d="M104035 5314.96 A196.85 196.85 0.0 0 0 104232 5511.81 " />
<path d="M106791 5511
L104429 5511
" />
<path d="M104035 4527
L104035 4724
" />
<path d="M107185 4527
L107185 4724
" />
<path d="M109251 4330
L108464 4330
" />
<path d="M107382 4330.71 A196.85 196.85 0.0 0 0 107185 4527.56 " />
<path d="M104035 4527.56 A196.85 196.85 0.0 0 0 103839 4330.71 " />
<path d="M23425 4330
L50590 4330
" />
<path d="M111023 4527
L111023 5118
" />
<path d="M110826 4330
L110433 4330
" />
<path d="M8188 1929
L7972 1929
" />
<path d="M7578 5511
L5511 5511
" />
<path d="M12007 2952
L12007 4133
" />
<path d="M7775 3740
L7775 2952
" />
<path d="M7775 5314
L7775 5118
" />
<path d="M4921 5511
L5511 5511
" />
<path d="M2362 5511
L2755 5511
" />
<path d="M2165 5708
L2165 6299
" />
<path d="M7775 3740
L7775 5118
" />
<path d="M4921 5511
L2755 5511
" />
<path d="M109055 20472
L109055 19881
" />
<path d="M109055 20866
L109055 20669
" />
<path d="M109055 19881
L109055 16929
" />
<path d="M109055 16535
L109055 16929
" />
<path d="M109055 14763
L109055 15157
" />
<path d="M109055 14763
L109055 13484
" />
<path d="M55905 39173
L56692 39173
" />
<path d="M55511 36220
L55511 37598
" />
<path d="M51968 36220
L51968 37598
" />
<path d="M51574.8 39173.2 A393.701 393.701 0.0 0 0 51968.5 38779.5 " />
<path d="M55511.8 38779.5 A393.701 393.701 0.0 0 0 55905.5 39173.2 " />
<path d="M55511.8 36220.5 A393.701 393.701 0.0 0 0 55118.1 35826.8 " />
<path d="M52362.2 35826.8 A393.701 393.701 0.0 0 0 51968.5 36220.5 " />
<path d="M56692 39173
L57086 39173
" />
<path d="M51574 39173
L51181 39173
" />
<path d="M57677 39173
L72244 39173
" />
<path d="M25196 38188
L25196 38976
" />
<path d="M83464 38188
L83464 38976
" />
<path d="M109251 12795
L109645 12795
" />
<path d="M25196 37795
L25196 38188
" />
<path d="M83464 37401
L83464 38188
" />
<path d="M83464 37401
L83464 35433
" />
<path d="M22637 4330
L23425 4330
" />
<path d="M111023 5118
L111023 5511
" />
<path d="M109251 4330
L110433 4330
" />
<path d="M111024 4527.56 A196.85 196.85 0.0 0 0 110827 4330.71 " />
<path d="M111023 12598
L111023 5511
" />
<path d="M109645 12795
L110826 12795
" />
<path d="M109055 13484
L109055 12992
" />
<path d="M109055 24606
L109055 20866
" />
<path d="M109055 34645
L109055 24606
" />
<path d="M107480 34842
L108858 34842
" />
<path d="M83661 34842
L107480 34842
" />
<path d="M83464 35433
L83464 35039
" />
<path d="M72244 39173
L83267 39173
" />
<path d="M25393 39173
L25787 39173
" />
<path d="M25196 35039
L25196 37795
" />
<path d="M2362 34842
L25000 34842
" />
<path d="M2165 32874
L2165 34645
" />
<path d="M7775 2165
L7775 2952
" />
<path d="M12007 2165
L12007 2952
" />
<path d="M12204 4330
L12401 4330
" />
<path d="M12007.9 4133.86 A196.85 196.85 0.0 0 0 12204.7 4330.71 " />
<path d="M110827 12795.3 A196.85 196.85 0.0 0 0 111024 12598.4 " />
<path d="M109252 12795.3 A196.85 196.85 0.0 0 0 109055 12992.1 " />
<path d="M108858 34842.5 A196.85 196.85 0.0 0 0 109055 34645.7 " />
<path d="M83661.4 34842.5 A196.85 196.85 0.0 0 0 83464.6 35039.4 " />
<path d="M83267.7 39173.2 A196.85 196.85 0.0 0 0 83464.6 38976.4 " />
<path d="M25196.9 38976.4 A196.85 196.85 0.0 0 0 25393.7 39173.2 " />
<path d="M25196.9 35039.4 A196.85 196.85 0.0 0 0 25000 34842.5 " />
<path d="M2165.35 34645.7 A196.85 196.85 0.0 0 0 2362.2 34842.5 " />
<path d="M2362.2 5511.81 A196.85 196.85 0.0 0 0 2165.35 5708.66 " />
<path d="M7578.74 5511.81 A196.85 196.85 0.0 0 0 7775.59 5314.96 " />
<path d="M7775 2165
L7775 2125
" />
<path d="M7972.44 1929.13 A196.85 196.85 0.0 0 0 7775.59 2125.98 " />
<path d="M12007 2086
L12007 2165
" />
<path d="M8188 1929
L11850 1929
" />
<path d="M12007.9 2086.61 A157.48 157.48 0.0 0 0 11850.4 1929.13 " />
<path d="M12401 4330
L22637 4330
" />
<path d="M46653 39173
L50393 39173
" />
<path d="M46653 39173
L25787 39173
" />
<path d="M2165 32874
L2165 6299
" />
<path d="M110393 6464
L109685 6464
" />
<path d="M110393 5677
L109685 5677
" />
<path d="M110393 5716
L110393 5677
" />
<path d="M110393 5716
L110393 6464
" />
<path d="M109685 5988
L109685 5677
" />
<path d="M109685 6389
L109685 6464
" />
<path d="M109685 5988
L109685 6389
" />
<path d="M109685 10992
L109783 10992
" />
<path d="M109685 10846
L109685 10992
" />
<path d="M110393 10992
L110295 10992
" />
<path d="M110393 10844
L110393 10992
" />
<path d="M110393 10204
L110295 10204
" />
<path d="M110393 10342
L110393 10204
" />
<path d="M109685 10204
L109783 10204
" />
<path d="M109685 10344
L109685 10204
" />
<path d="M110393 8728
L110295 8728
" />
<path d="M110393 8590
L110393 8728
" />
<path d="M109685 8728
L109783 8728
" />
<path d="M109685 8600
L109685 8728
" />
<path d="M110393 7940
L110350 7940
" />
<path d="M110393 8070
L110393 7940
" />
<path d="M110295 7940
L110350 7940
" />
<path d="M109685 7940
L109685 7942
" />
<path d="M109783 7940
L109685 7940
" />
<path d="M109685 8080
L109685 7942
" />
<path d="M109685 10846
L109685 10344
" />
<path d="M110295 10992
L109783 10992
" />
<path d="M110393 10342
L110393 10844
" />
<path d="M109783 10204
L110295 10204
" />
<path d="M110393 8590
L110393 8070
" />
<path d="M109685 8080
L109685 8600
" />
<path d="M109783 8728
L110295 8728
" />
<path d="M109783 7940
L110295 7940
" />
</g> 
</svg>
