  0
SECTION
  2
HEADER
  9
$ACADVER
  1
AC1014
  9
$HANDSEED
  5
FFFF
  9
$MEASUREMENT
 70
     1
  0
ENDSEC
  0
SECTION
  2
TABLES
  0
TABLE
  2
VPORT
  5
8
330
0
100
AcDbSymbolTable
 70
     4
  0
VPORT
  5
2E
330
8
100
AcDbSymbolTableRecord
100
AcDbViewportTableRecord
  2
*ACTIVE
 70
     0
 10
0.0
 20
0.0
 11
1.0
 21
1.0
 12
210.0
 22
148.5
 13
0.0
 23
0.0
 14
10.0
 24
10.0
 15
10.0
 25
10.0
 16
0.0
 26
0.0
 36
1.0
 17
0.0
 27
0.0
 37
0.0
 40
341.0
 41
1.24
 42
50.0
 43
0.0
 44
0.0
 50
0.0
 51
0.0
 71
     0
 72
   100
 73
     1
 74
     3
 75
     0
 76
     0
 77
     0
 78
     0
  0
ENDTAB
  0
TABLE
  2
LTYPE
  5
5
330
0
100
AcDbSymbolTable
 70
     1
  0
LTYPE
  5
14
330
5
100
AcDbSymbolTableRecord
100
AcDbLinetypeTableRecord
  2
BYBLOCK
 70
     0
  3

 72
    65
 73
     0
 40
0.0
  0
LTYPE
  5
15
330
5
100
AcDbSymbolTableRecord
100
AcDbLinetypeTableRecord
  2
BYLAYER
 70
     0
  3

 72
    65
 73
     0
 40
0.0
  0
LTYPE
  5
16
330
5
100
AcDbSymbolTableRecord
100
AcDbLinetypeTableRecord
  2
CONTINUOUS
 70
     0
  3
Solid line
 72
    65
 73
     0
 40
0.0
  0
ENDTAB
  0
TABLE
  2
LAYER
  5
2
100
AcDbSymbolTable
 70
1
  0
LAYER
  5
50
100
AcDbSymbolTableRecord
100
AcDbLayerTableRecord
  2
0
 70
0
  6
CONTINUOUS
  0
ENDTAB
  0
TABLE
  2
STYLE
  5
3
330
0
100
AcDbSymbolTable
 70
     1
  0
STYLE
  5
11
330
3
100
AcDbSymbolTableRecord
100
AcDbTextStyleTableRecord
  2
STANDARD
 70
     0
 40
0.0
 41
1.0
 50
0.0
 71
     0
 42
2.5
  3
txt
  4

  0
ENDTAB
  0
TABLE
  2
VIEW
  5
6
330
0
100
AcDbSymbolTable
 70
     0
  0
ENDTAB
  0
TABLE
  2
UCS
  5
7
330
0
100
AcDbSymbolTable
 70
     0
  0
ENDTAB
  0
TABLE
  2
APPID
  5
9
330
0
100
AcDbSymbolTable
 70
     2
  0
APPID
  5
12
330
9
100
AcDbSymbolTableRecord
100
AcDbRegAppTableRecord
  2
ACAD
 70
     0
  0
ENDTAB
  0
TABLE
  2
DIMSTYLE
  5
A
330
0
100
AcDbSymbolTable
 70
     1
  0
DIMSTYLE
105
27
330
A
100
AcDbSymbolTableRecord
100
AcDbDimStyleTableRecord
  2
ISO-25
 70
     0
  3

  4

  5

  6

  7

 40
1.0
 41
2.5
 42
0.625
 43
3.75
 44
1.25
 45
0.0
 46
0.0
 47
0.0
 48
0.0
140
2.5
141
2.5
142
0.0
143
0.03937007874016
144
1.0
145
0.0
146
1.0
147
0.625
 71
     0
 72
     0
 73
     0
 74
     0
 75
     0
 76
     0
 77
     1
 78
     8
170
     0
171
     3
172
     1
173
     0
174
     0
175
     0
176
     0
177
     0
178
     0
270
     2
271
     2
272
     2
273
     2
274
     3
340
11
275
     0
280
     0
281
     0
282
     0
283
     0
284
     8
285
     0
286
     0
287
     3
288
     0
  0
ENDTAB
  0
TABLE
  2
BLOCK_RECORD
  5
1
330
0
100
AcDbSymbolTable
 70
     1
  0
BLOCK_RECORD
  5
1F
330
1
100
AcDbSymbolTableRecord
100
AcDbBlockTableRecord
  2
*MODEL_SPACE
  0
BLOCK_RECORD
  5
1B
330
1
100
AcDbSymbolTableRecord
100
AcDbBlockTableRecord
  2
*PAPER_SPACE
  0
ENDTAB
  0
ENDSEC
  0
SECTION
  2
BLOCKS
  0
BLOCK
  5
20
330
1F
100
AcDbEntity
  8
0
100
AcDbBlockBegin
  2
*MODEL_SPACE
 70
     0
 10
0.0
 20
0.0
 30
0.0
  3
*MODEL_SPACE
  1

  0
ENDBLK
  5
21
330
1F
100
AcDbEntity
  8
0
100
AcDbBlockEnd
  0
BLOCK
  5
1C
330
1B
100
AcDbEntity
 67
     1
  8
0
100
AcDbBlockBegin
  2
*PAPER_SPACE
  1

  0
ENDBLK
  5
1D
330
1B
100
AcDbEntity
 67
     1
  8
0
100
AcDbBlockEnd
  0
ENDSEC
  0
SECTION
  2
ENTITIES
  0
LWPOLYLINE
  5
100
100
AcDbEntity
  8
0
 62
7
100
AcDbPolyline
 90
2
 70
0
 10
272.748250
 20
-9.971163
 30
0.0
 10
272.999710
 20
-9.971163
 30
0.0
  0
LWPOLYLINE
  5
101
100
AcDbEntity
  8
0
 62
7
100
AcDbPolyline
 90
2
 70
0
 10
262.999712
 20
-9.971163
 30
0.0
 10
261.998950
 20
-9.971163
 30
0.0
  0
LWPOLYLINE
  5
102
100
AcDbEntity
  8
0
 62
7
100
AcDbPolyline
 90
2
 70
0
 10
262.999712
 20
-9.971163
 30
0.0
 10
263.749013
 20
-9.971163
 30
0.0
  0
LWPOLYLINE
  5
103
100
AcDbEntity
  8
0
 62
7
100
AcDbPolyline
 90
2
 70
0
 10
258.498823
 20
-9.971163
 30
0.0
 10
261.998950
 20
-9.971163
 30
0.0
  0
LWPOLYLINE
  5
104
100
AcDbEntity
  8
0
 62
7
100
AcDbPolyline
 90
2
 70
0
 10
131.998967
 20
-94.472041
 30
0.0
 10
131.998967
 20
-97.471786
 30
0.0
  0
LWPOLYLINE
  5
105
100
AcDbEntity
  8
0
 62
7
100
AcDbPolyline
 90
2
 70
0
 10
140.998204
 20
-94.472041
 30
0.0
 10
140.998204
 20
-97.471786
 30
0.0
  0
LWPOLYLINE
  5
106
100
AcDbEntity
  8
0
 62
7
100
AcDbPolyline
 90
3
 70
0
 10
275.499075
 20
-9.971163
 30
0.0
 10
273.500091
 20
-9.971163
 30
0.0
 10
272.999710
 20
-9.971163
 30
0.0
  0
LWPOLYLINE
  5
107
100
AcDbEntity
  8
0
 62
7
100
AcDbPolyline
 90
2
 70
0
 10
139.999982
 20
-89.971152
 30
0.0
 10
132.999729
 20
-89.971152
 30
0.0
  0
LWPOLYLINE
  5
108
100
AcDbEntity
  8
0
 62
7
100
AcDbPolyline
 90
2
 70
0
 10
146.499854
 20
-98.472548
 30
0.0
 10
144.998711
 20
-98.472548
 30
0.0
  0
LWPOLYLINE
  5
109
100
AcDbEntity
  8
0
 62
7
100
AcDbPolyline
 90
2
 70
0
 10
129.499602
 20
-98.472548
 30
0.0
 10
127.998459
 20
-98.472548
 30
0.0
  0
LWPOLYLINE
  5
10a
100
AcDbEntity
  8
0
 62
7
100
AcDbPolyline
 90
2
 70
0
 10
131.498586
 20
-9.971163
 30
0.0
 10
130.998205
 20
-9.971163
 30
0.0
  0
LWPOLYLINE
  5
10b
100
AcDbEntity
  8
0
 62
7
100
AcDbPolyline
 90
2
 70
0
 10
129.499602
 20
-98.472548
 30
0.0
 10
129.999983
 20
-98.472548
 30
0.0
  0
LWPOLYLINE
  5
10c
100
AcDbEntity
  8
0
 62
7
100
AcDbPolyline
 90
2
 70
0
 10
277.000218
 20
-37.471794
 30
0.0
 10
277.000218
 20
-40.971921
 30
0.0
  0
LWPOLYLINE
  5
10d
100
AcDbEntity
  8
0
 62
7
100
AcDbPolyline
 90
2
 70
0
 10
277.000218
 20
-50.971919
 30
0.0
 10
277.000218
 20
-51.472300
 30
0.0
  0
LWPOLYLINE
  5
10e
100
AcDbEntity
  8
0
 62
7
100
AcDbPolyline
 90
2
 70
0
 10
264.249394
 20
-11.472305
 30
0.0
 10
264.249394
 20
-12.470527
 30
0.0
  0
LWPOLYLINE
  5
10f
100
AcDbEntity
  8
0
 62
7
100
AcDbPolyline
 90
2
 70
0
 10
272.250409
 20
-11.472305
 30
0.0
 10
272.250409
 20
-12.470527
 30
0.0
  0
LWPOLYLINE
  5
110
100
AcDbEntity
  8
0
 62
7
100
AcDbPolyline
 90
2
 70
0
 10
131.998967
 20
-10.471544
 30
0.0
 10
131.998967
 20
-12.470527
 30
0.0
  0
LWPOLYLINE
  5
111
100
AcDbEntity
  8
0
 62
7
100
AcDbPolyline
 90
2
 70
0
 10
128.498840
 20
-9.971163
 30
0.0
 10
130.998205
 20
-9.971163
 30
0.0
  0
LWPOLYLINE
  5
112
100
AcDbEntity
  8
0
 62
7
100
AcDbPolyline
 90
2
 70
0
 10
140.998204
 20
-10.471544
 30
0.0
 10
140.998204
 20
-12.470527
 30
0.0
  0
LWPOLYLINE
  5
113
100
AcDbEntity
  8
0
 62
7
100
AcDbPolyline
 90
2
 70
0
 10
144.498330
 20
-9.971163
 30
0.0
 10
141.498585
 20
-9.971163
 30
0.0
  0
SPLINE
  5
114
100
AcDbEntity
  8
0
 62
7
100
AcDbSpline
 70
8
 71
3
 72
8
 73
4
 74
0
 40
0
 40
0
 40
0
 40
0
 40
1
 40
1
 40
1
 40
1
 10
132.000237
 20
-10.472966
 30
0.0
 10
132.000237
 20
-10.196873
 30
0.0
 10
131.776457
 20
-9.973036
 30
0.0
 10
131.500364
 20
-9.972966
 30
0.0
  0
SPLINE
  5
115
100
AcDbEntity
  8
0
 62
7
100
AcDbSpline
 70
8
 71
3
 72
8
 73
4
 74
0
 40
0
 40
0
 40
0
 40
0
 40
1
 40
1
 40
1
 40
1
 10
141.500363
 20
-9.972966
 30
0.0
 10
141.367732
 20
-9.972932
 30
0.0
 10
141.240523
 20
-10.025596
 30
0.0
 10
141.146727
 20
-10.119368
 30
0.0
  0
SPLINE
  5
116
100
AcDbEntity
  8
0
 62
7
100
AcDbSpline
 70
8
 71
3
 72
8
 73
4
 74
0
 40
0
 40
0
 40
0
 40
0
 40
1
 40
1
 40
1
 40
1
 10
141.146727
 20
-10.119368
 30
0.0
 10
141.052931
 20
-10.213140
 30
0.0
 10
141.000236
 20
-10.340336
 30
0.0
 10
141.000236
 20
-10.472966
 30
0.0
  0
SPLINE
  5
117
100
AcDbEntity
  8
0
 62
7
100
AcDbSpline
 70
8
 71
3
 72
8
 73
4
 74
0
 40
0
 40
0
 40
0
 40
0
 40
1
 40
1
 40
1
 40
1
 10
140.500363
 20
-12.972966
 30
0.0
 10
140.776455
 20
-12.972896
 30
0.0
 10
141.000236
 20
-12.749058
 30
0.0
 10
141.000236
 20
-12.472966
 30
0.0
  0
SPLINE
  5
118
100
AcDbEntity
  8
0
 62
7
100
AcDbSpline
 70
8
 71
3
 72
8
 73
4
 74
0
 40
0
 40
0
 40
0
 40
0
 40
1
 40
1
 40
1
 40
1
 10
132.000237
 20
-12.472966
 30
0.0
 10
132.000237
 20
-12.605596
 30
0.0
 10
132.052933
 20
-12.732792
 30
0.0
 10
132.146728
 20
-12.826564
 30
0.0
  0
SPLINE
  5
119
100
AcDbEntity
  8
0
 62
7
100
AcDbSpline
 70
8
 71
3
 72
8
 73
4
 74
0
 40
0
 40
0
 40
0
 40
0
 40
1
 40
1
 40
1
 40
1
 10
132.146728
 20
-12.826564
 30
0.0
 10
132.240524
 20
-12.920336
 30
0.0
 10
132.367733
 20
-12.972999
 30
0.0
 10
132.500364
 20
-12.972966
 30
0.0
  0
LWPOLYLINE
  5
11a
100
AcDbEntity
  8
0
 62
7
100
AcDbPolyline
 90
2
 70
0
 10
144.498330
 20
-9.971163
 30
0.0
 10
258.498823
 20
-9.971163
 30
0.0
  0
LWPOLYLINE
  5
11b
100
AcDbEntity
  8
0
 62
7
100
AcDbPolyline
 90
2
 70
0
 10
140.497823
 20
-12.970908
 30
0.0
 10
132.499348
 20
-12.970908
 30
0.0
  0
LWPOLYLINE
  5
11c
100
AcDbEntity
  8
0
 62
7
100
AcDbPolyline
 90
2
 70
0
 10
264.249394
 20
-11.472305
 30
0.0
 10
264.249394
 20
-10.971925
 30
0.0
  0
LWPOLYLINE
  5
11d
100
AcDbEntity
  8
0
 62
7
100
AcDbPolyline
 90
2
 70
0
 10
265.250156
 20
-12.970908
 30
0.0
 10
264.749775
 20
-12.970908
 30
0.0
  0
LWPOLYLINE
  5
11e
100
AcDbEntity
  8
0
 62
7
100
AcDbPolyline
 90
2
 70
0
 10
271.750028
 20
-12.970908
 30
0.0
 10
271.249647
 20
-12.970908
 30
0.0
  0
SPLINE
  5
11f
100
AcDbEntity
  8
0
 62
7
100
AcDbSpline
 70
8
 71
3
 72
8
 73
4
 74
0
 40
0
 40
0
 40
0
 40
0
 40
1
 40
1
 40
1
 40
1
 10
271.750028
 20
-12.972966
 30
0.0
 10
271.882702
 20
-12.973067
 30
0.0
 10
272.009977
 20
-12.920433
 30
0.0
 10
272.103828
 20
-12.826654
 30
0.0
  0
SPLINE
  5
120
100
AcDbEntity
  8
0
 62
7
100
AcDbSpline
 70
8
 71
3
 72
8
 73
4
 74
0
 40
0
 40
0
 40
0
 40
0
 40
1
 40
1
 40
1
 40
1
 10
272.103828
 20
-12.826654
 30
0.0
 10
272.197678
 20
-12.732875
 30
0.0
 10
272.250409
 20
-12.605640
 30
0.0
 10
272.250409
 20
-12.472966
 30
0.0
  0
SPLINE
  5
121
100
AcDbEntity
  8
0
 62
7
100
AcDbSpline
 70
8
 71
3
 72
8
 73
4
 74
0
 40
0
 40
0
 40
0
 40
0
 40
1
 40
1
 40
1
 40
1
 10
264.249394
 20
-12.472966
 30
0.0
 10
264.249394
 20
-12.605640
 30
0.0
 10
264.302125
 20
-12.732875
 30
0.0
 10
264.395975
 20
-12.826654
 30
0.0
  0
SPLINE
  5
122
100
AcDbEntity
  8
0
 62
7
100
AcDbSpline
 70
8
 71
3
 72
8
 73
4
 74
0
 40
0
 40
0
 40
0
 40
0
 40
1
 40
1
 40
1
 40
1
 10
264.395975
 20
-12.826654
 30
0.0
 10
264.489826
 20
-12.920433
 30
0.0
 10
264.617101
 20
-12.973067
 30
0.0
 10
264.749775
 20
-12.972966
 30
0.0
  0
LWPOLYLINE
  5
123
100
AcDbEntity
  8
0
 62
7
100
AcDbPolyline
 90
2
 70
0
 10
272.250409
 20
-10.971925
 30
0.0
 10
272.250409
 20
-11.472305
 30
0.0
  0
LWPOLYLINE
  5
124
100
AcDbEntity
  8
0
 62
7
100
AcDbPolyline
 90
2
 70
0
 10
271.249647
 20
-12.970908
 30
0.0
 10
265.250156
 20
-12.970908
 30
0.0
  0
LWPOLYLINE
  5
125
100
AcDbEntity
  8
0
 62
7
100
AcDbPolyline
 90
2
 70
0
 10
264.249394
 20
-10.471544
 30
0.0
 10
264.249394
 20
-10.971925
 30
0.0
  0
LWPOLYLINE
  5
126
100
AcDbEntity
  8
0
 62
7
100
AcDbPolyline
 90
2
 70
0
 10
272.250409
 20
-10.471544
 30
0.0
 10
272.250409
 20
-10.971925
 30
0.0
  0
SPLINE
  5
127
100
AcDbEntity
  8
0
 62
7
100
AcDbSpline
 70
8
 71
3
 72
8
 73
4
 74
0
 40
0
 40
0
 40
0
 40
0
 40
1
 40
1
 40
1
 40
1
 10
272.750790
 20
-9.972966
 30
0.0
 10
272.618116
 20
-9.972865
 30
0.0
 10
272.490841
 20
-10.025499
 30
0.0
 10
272.396990
 20
-10.119278
 30
0.0
  0
SPLINE
  5
128
100
AcDbEntity
  8
0
 62
7
100
AcDbSpline
 70
8
 71
3
 72
8
 73
4
 74
0
 40
0
 40
0
 40
0
 40
0
 40
1
 40
1
 40
1
 40
1
 10
272.396990
 20
-10.119278
 30
0.0
 10
272.303140
 20
-10.213057
 30
0.0
 10
272.250409
 20
-10.340292
 30
0.0
 10
272.250409
 20
-10.472966
 30
0.0
  0
SPLINE
  5
129
100
AcDbEntity
  8
0
 62
7
100
AcDbSpline
 70
8
 71
3
 72
8
 73
4
 74
0
 40
0
 40
0
 40
0
 40
0
 40
1
 40
1
 40
1
 40
1
 10
264.249394
 20
-10.472966
 30
0.0
 10
264.249397
 20
-10.197665
 30
0.0
 10
264.026852
 20
-9.974155
 30
0.0
 10
263.751553
 20
-9.972966
 30
0.0
  0
LWPOLYLINE
  5
12a
100
AcDbEntity
  8
0
 62
7
100
AcDbPolyline
 90
2
 70
0
 10
277.498059
 20
-9.971163
 30
0.0
 10
275.499075
 20
-9.971163
 30
0.0
  0
LWPOLYLINE
  5
12b
100
AcDbEntity
  8
0
 62
7
100
AcDbPolyline
 90
2
 70
0
 10
59.499611
 20
-9.971163
 30
0.0
 10
128.498840
 20
-9.971163
 30
0.0
  0
LWPOLYLINE
  5
12c
100
AcDbEntity
  8
0
 62
7
100
AcDbPolyline
 90
2
 70
0
 10
281.998947
 20
-10.471544
 30
0.0
 10
281.998947
 20
-11.972686
 30
0.0
  0
LWPOLYLINE
  5
12d
100
AcDbEntity
  8
0
 62
7
100
AcDbPolyline
 90
2
 70
0
 10
281.498566
 20
-9.971163
 30
0.0
 10
280.500344
 20
-9.971163
 30
0.0
  0
LWPOLYLINE
  5
12e
100
AcDbEntity
  8
0
 62
7
100
AcDbPolyline
 90
2
 70
0
 10
20.797559
 20
-3.872611
 30
0.0
 10
20.248918
 20
-3.872611
 30
0.0
  0
LWPOLYLINE
  5
12f
100
AcDbEntity
  8
0
 62
7
100
AcDbPolyline
 90
2
 70
0
 10
19.248156
 20
-12.970908
 30
0.0
 10
13.997966
 20
-12.970908
 30
0.0
  0
LWPOLYLINE
  5
130
100
AcDbEntity
  8
0
 62
7
100
AcDbPolyline
 90
2
 70
0
 10
30.497837
 20
-6.471036
 30
0.0
 10
30.497837
 20
-9.470782
 30
0.0
  0
LWPOLYLINE
  5
131
100
AcDbEntity
  8
0
 62
7
100
AcDbPolyline
 90
2
 70
0
 10
19.748537
 20
-8.472560
 30
0.0
 10
19.748537
 20
-6.471036
 30
0.0
  0
LWPOLYLINE
  5
132
100
AcDbEntity
  8
0
 62
7
100
AcDbPolyline
 90
2
 70
0
 10
19.748537
 20
-12.470527
 30
0.0
 10
19.748537
 20
-11.972686
 30
0.0
  0
LWPOLYLINE
  5
133
100
AcDbEntity
  8
0
 62
7
100
AcDbPolyline
 90
2
 70
0
 10
12.499363
 20
-12.970908
 30
0.0
 10
13.997966
 20
-12.970908
 30
0.0
  0
LWPOLYLINE
  5
134
100
AcDbEntity
  8
0
 62
7
100
AcDbPolyline
 90
2
 70
0
 10
5.999491
 20
-12.970908
 30
0.0
 10
6.997713
 20
-12.970908
 30
0.0
  0
LWPOLYLINE
  5
135
100
AcDbEntity
  8
0
 62
7
100
AcDbPolyline
 90
2
 70
0
 10
5.499110
 20
-13.471289
 30
0.0
 10
5.499110
 20
-14.972432
 30
0.0
  0
LWPOLYLINE
  5
136
100
AcDbEntity
  8
0
 62
7
100
AcDbPolyline
 90
2
 70
0
 10
19.748537
 20
-8.472560
 30
0.0
 10
19.748537
 20
-11.972686
 30
0.0
  0
LWPOLYLINE
  5
137
100
AcDbEntity
  8
0
 62
7
100
AcDbPolyline
 90
2
 70
0
 10
12.499363
 20
-12.970908
 30
0.0
 10
6.997713
 20
-12.970908
 30
0.0
  0
LWPOLYLINE
  5
138
100
AcDbEntity
  8
0
 62
7
100
AcDbPolyline
 90
2
 70
0
 10
277.000218
 20
-50.971919
 30
0.0
 10
277.000218
 20
-49.470776
 30
0.0
  0
LWPOLYLINE
  5
139
100
AcDbEntity
  8
0
 62
7
100
AcDbPolyline
 90
2
 70
0
 10
277.000218
 20
-51.972681
 30
0.0
 10
277.000218
 20
-51.472300
 30
0.0
  0
LWPOLYLINE
  5
13a
100
AcDbEntity
  8
0
 62
7
100
AcDbPolyline
 90
2
 70
0
 10
277.000218
 20
-49.470776
 30
0.0
 10
277.000218
 20
-41.972682
 30
0.0
  0
LWPOLYLINE
  5
13b
100
AcDbEntity
  8
0
 62
7
100
AcDbPolyline
 90
2
 70
0
 10
277.000218
 20
-40.971921
 30
0.0
 10
277.000218
 20
-41.972682
 30
0.0
  0
LWPOLYLINE
  5
13c
100
AcDbEntity
  8
0
 62
7
100
AcDbPolyline
 90
2
 70
0
 10
277.000218
 20
-36.471032
 30
0.0
 10
277.000218
 20
-37.471794
 30
0.0
  0
LWPOLYLINE
  5
13d
100
AcDbEntity
  8
0
 62
7
100
AcDbPolyline
 90
2
 70
0
 10
277.000218
 20
-36.471032
 30
0.0
 10
277.000218
 20
-33.222366
 30
0.0
  0
LWPOLYLINE
  5
13e
100
AcDbEntity
  8
0
 62
7
100
AcDbPolyline
 90
2
 70
0
 10
141.998965
 20
-98.472548
 30
0.0
 10
143.997949
 20
-98.472548
 30
0.0
  0
LWPOLYLINE
  5
13f
100
AcDbEntity
  8
0
 62
7
100
AcDbPolyline
 90
2
 70
0
 10
140.998204
 20
-90.971914
 30
0.0
 10
140.998204
 20
-94.472041
 30
0.0
  0
SPLINE
  5
140
100
AcDbEntity
  8
0
 62
7
100
AcDbSpline
 70
8
 71
3
 72
8
 73
4
 74
0
 40
0
 40
0
 40
0
 40
0
 40
1
 40
1
 40
1
 40
1
 10
131.000237
 20
-98.473056
 30
0.0
 10
131.552521
 20
-98.473055
 30
0.0
 10
132.000235
 20
-98.025340
 30
0.0
 10
132.000237
 20
-97.473056
 30
0.0
  0
SPLINE
  5
141
100
AcDbEntity
  8
0
 62
7
100
AcDbSpline
 70
8
 71
3
 72
8
 73
4
 74
0
 40
0
 40
0
 40
0
 40
0
 40
1
 40
1
 40
1
 40
1
 10
141.000236
 20
-97.473056
 30
0.0
 10
141.000237
 20
-98.025340
 30
0.0
 10
141.447951
 20
-98.473055
 30
0.0
 10
142.000235
 20
-98.473056
 30
0.0
  0
SPLINE
  5
142
100
AcDbEntity
  8
0
 62
7
100
AcDbSpline
 70
8
 71
3
 72
8
 73
4
 74
0
 40
0
 40
0
 40
0
 40
0
 40
1
 40
1
 40
1
 40
1
 10
141.000236
 20
-90.973184
 30
0.0
 10
141.000234
 20
-90.420900
 30
0.0
 10
140.552520
 20
-89.973186
 30
0.0
 10
140.000236
 20
-89.973184
 30
0.0
  0
SPLINE
  5
143
100
AcDbEntity
  8
0
 62
7
100
AcDbSpline
 70
8
 71
3
 72
8
 73
4
 74
0
 40
0
 40
0
 40
0
 40
0
 40
1
 40
1
 40
1
 40
1
 10
133.000237
 20
-89.973184
 30
0.0
 10
132.447953
 20
-89.973186
 30
0.0
 10
132.000238
 20
-90.420900
 30
0.0
 10
132.000237
 20
-90.973184
 30
0.0
  0
LWPOLYLINE
  5
144
100
AcDbEntity
  8
0
 62
7
100
AcDbPolyline
 90
2
 70
0
 10
131.998967
 20
-90.971914
 30
0.0
 10
131.998967
 20
-94.472041
 30
0.0
  0
LWPOLYLINE
  5
145
100
AcDbEntity
  8
0
 62
7
100
AcDbPolyline
 90
2
 70
0
 10
143.997949
 20
-98.472548
 30
0.0
 10
144.998711
 20
-98.472548
 30
0.0
  0
LWPOLYLINE
  5
146
100
AcDbEntity
  8
0
 62
7
100
AcDbPolyline
 90
2
 70
0
 10
130.998205
 20
-98.472548
 30
0.0
 10
129.999983
 20
-98.472548
 30
0.0
  0
LWPOLYLINE
  5
147
100
AcDbEntity
  8
0
 62
7
100
AcDbPolyline
 90
2
 70
0
 10
146.499854
 20
-98.472548
 30
0.0
 10
183.500103
 20
-98.472548
 30
0.0
  0
LWPOLYLINE
  5
148
100
AcDbEntity
  8
0
 62
7
100
AcDbPolyline
 90
2
 70
0
 10
63.997960
 20
-95.970643
 30
0.0
 10
63.997960
 20
-97.972167
 30
0.0
  0
LWPOLYLINE
  5
149
100
AcDbEntity
  8
0
 62
7
100
AcDbPolyline
 90
2
 70
0
 10
211.998956
 20
-95.970643
 30
0.0
 10
211.998956
 20
-97.972167
 30
0.0
  0
LWPOLYLINE
  5
14a
100
AcDbEntity
  8
0
 62
7
100
AcDbPolyline
 90
2
 70
0
 10
277.498059
 20
-31.472303
 30
0.0
 10
278.498821
 20
-31.472303
 30
0.0
  0
LWPOLYLINE
  5
14b
100
AcDbEntity
  8
0
 62
7
100
AcDbPolyline
 90
2
 70
0
 10
63.997960
 20
-94.972422
 30
0.0
 10
63.997960
 20
-95.970643
 30
0.0
  0
LWPOLYLINE
  5
14c
100
AcDbEntity
  8
0
 62
7
100
AcDbPolyline
 90
2
 70
0
 10
211.998956
 20
-93.971660
 30
0.0
 10
211.998956
 20
-95.970643
 30
0.0
  0
LWPOLYLINE
  5
14d
100
AcDbEntity
  8
0
 62
7
100
AcDbPolyline
 90
2
 70
0
 10
211.998956
 20
-93.971660
 30
0.0
 10
211.998956
 20
-88.972930
 30
0.0
  0
LWPOLYLINE
  5
14e
100
AcDbEntity
  8
0
 62
7
100
AcDbPolyline
 90
2
 70
0
 10
57.498087
 20
-9.971163
 30
0.0
 10
59.499611
 20
-9.971163
 30
0.0
  0
LWPOLYLINE
  5
14f
100
AcDbEntity
  8
0
 62
7
100
AcDbPolyline
 90
2
 70
0
 10
281.998947
 20
-11.972686
 30
0.0
 10
281.998947
 20
-12.970908
 30
0.0
  0
SPLINE
  5
150
100
AcDbEntity
  8
0
 62
7
100
AcDbSpline
 70
8
 71
3
 72
8
 73
4
 74
0
 40
0
 40
0
 40
0
 40
0
 40
1
 40
1
 40
1
 40
1
 10
282.001487
 20
-10.472966
 30
0.0
 10
282.001487
 20
-10.340292
 30
0.0
 10
281.948757
 20
-10.213057
 30
0.0
 10
281.854906
 20
-10.119278
 30
0.0
  0
SPLINE
  5
151
100
AcDbEntity
  8
0
 62
7
100
AcDbSpline
 70
8
 71
3
 72
8
 73
4
 74
0
 40
0
 40
0
 40
0
 40
0
 40
1
 40
1
 40
1
 40
1
 10
281.854906
 20
-10.119278
 30
0.0
 10
281.761055
 20
-10.025499
 30
0.0
 10
281.633780
 20
-9.972865
 30
0.0
 10
281.501106
 20
-9.972966
 30
0.0
  0
LWPOLYLINE
  5
152
100
AcDbEntity
  8
0
 62
7
100
AcDbPolyline
 90
2
 70
0
 10
277.498059
 20
-9.971163
 30
0.0
 10
280.500344
 20
-9.971163
 30
0.0
  0
LWPOLYLINE
  5
153
100
AcDbEntity
  8
0
 62
7
100
AcDbPolyline
 90
2
 70
0
 10
281.998947
 20
-30.971922
 30
0.0
 10
281.998947
 20
-12.970908
 30
0.0
  0
LWPOLYLINE
  5
154
100
AcDbEntity
  8
0
 62
7
100
AcDbPolyline
 90
2
 70
0
 10
278.498821
 20
-31.472303
 30
0.0
 10
281.498566
 20
-31.472303
 30
0.0
  0
LWPOLYLINE
  5
155
100
AcDbEntity
  8
0
 62
7
100
AcDbPolyline
 90
2
 70
0
 10
277.000218
 20
-33.222366
 30
0.0
 10
277.000218
 20
-31.972684
 30
0.0
  0
LWPOLYLINE
  5
156
100
AcDbEntity
  8
0
 62
7
100
AcDbPolyline
 90
2
 70
0
 10
277.000218
 20
-61.472299
 30
0.0
 10
277.000218
 20
-51.972681
 30
0.0
  0
LWPOLYLINE
  5
157
100
AcDbEntity
  8
0
 62
7
100
AcDbPolyline
 90
2
 70
0
 10
277.000218
 20
-86.971407
 30
0.0
 10
277.000218
 20
-61.472299
 30
0.0
  0
LWPOLYLINE
  5
158
100
AcDbEntity
  8
0
 62
7
100
AcDbPolyline
 90
2
 70
0
 10
272.999710
 20
-87.471788
 30
0.0
 10
276.499837
 20
-87.471788
 30
0.0
  0
LWPOLYLINE
  5
159
100
AcDbEntity
  8
0
 62
7
100
AcDbPolyline
 90
2
 70
0
 10
212.499337
 20
-87.471788
 30
0.0
 10
272.999710
 20
-87.471788
 30
0.0
  0
LWPOLYLINE
  5
15a
100
AcDbEntity
  8
0
 62
7
100
AcDbPolyline
 90
2
 70
0
 10
211.998956
 20
-88.972930
 30
0.0
 10
211.998956
 20
-87.972168
 30
0.0
  0
LWPOLYLINE
  5
15b
100
AcDbEntity
  8
0
 62
7
100
AcDbPolyline
 90
2
 70
0
 10
183.500103
 20
-98.472548
 30
0.0
 10
211.498575
 20
-98.472548
 30
0.0
  0
LWPOLYLINE
  5
15c
100
AcDbEntity
  8
0
 62
7
100
AcDbPolyline
 90
2
 70
0
 10
64.498341
 20
-98.472548
 30
0.0
 10
65.499102
 20
-98.472548
 30
0.0
  0
LWPOLYLINE
  5
15d
100
AcDbEntity
  8
0
 62
7
100
AcDbPolyline
 90
2
 70
0
 10
63.997960
 20
-87.972168
 30
0.0
 10
63.997960
 20
-94.972422
 30
0.0
  0
LWPOLYLINE
  5
15e
100
AcDbEntity
  8
0
 62
7
100
AcDbPolyline
 90
2
 70
0
 10
5.999491
 20
-87.471788
 30
0.0
 10
63.500119
 20
-87.471788
 30
0.0
  0
LWPOLYLINE
  5
15f
100
AcDbEntity
  8
0
 62
7
100
AcDbPolyline
 90
2
 70
0
 10
5.499110
 20
-82.473058
 30
0.0
 10
5.499110
 20
-86.971407
 30
0.0
  0
LWPOLYLINE
  5
160
100
AcDbEntity
  8
0
 62
7
100
AcDbPolyline
 90
2
 70
0
 10
19.748537
 20
-4.472052
 30
0.0
 10
19.748537
 20
-6.471036
 30
0.0
  0
LWPOLYLINE
  5
161
100
AcDbEntity
  8
0
 62
7
100
AcDbPolyline
 90
2
 70
0
 10
30.497837
 20
-4.472052
 30
0.0
 10
30.497837
 20
-6.471036
 30
0.0
  0
SPLINE
  5
162
100
AcDbEntity
  8
0
 62
7
100
AcDbSpline
 70
8
 71
3
 72
8
 73
4
 74
0
 40
0
 40
0
 40
0
 40
0
 40
1
 40
1
 40
1
 40
1
 10
30.500123
 20
-9.472966
 30
0.0
 10
30.500123
 20
-9.749059
 30
0.0
 10
30.723903
 20
-9.972896
 30
0.0
 10
30.999996
 20
-9.972966
 30
0.0
  0
SPLINE
  5
163
100
AcDbEntity
  8
0
 62
7
100
AcDbSpline
 70
8
 71
3
 72
8
 73
4
 74
0
 40
0
 40
0
 40
0
 40
0
 40
1
 40
1
 40
1
 40
1
 10
281.501106
 20
-31.473065
 30
0.0
 10
281.633802
 20
-31.473166
 30
0.0
 10
281.761097
 20
-31.420515
 30
0.0
 10
281.854951
 20
-31.326708
 30
0.0
  0
SPLINE
  5
164
100
AcDbEntity
  8
0
 62
7
100
AcDbSpline
 70
8
 71
3
 72
8
 73
4
 74
0
 40
0
 40
0
 40
0
 40
0
 40
1
 40
1
 40
1
 40
1
 10
281.854951
 20
-31.326708
 30
0.0
 10
281.948805
 20
-31.232902
 30
0.0
 10
282.001521
 20
-31.105634
 30
0.0
 10
282.001487
 20
-30.972938
 30
0.0
  0
SPLINE
  5
165
100
AcDbEntity
  8
0
 62
7
100
AcDbSpline
 70
8
 71
3
 72
8
 73
4
 74
0
 40
0
 40
0
 40
0
 40
0
 40
1
 40
1
 40
1
 40
1
 10
277.500599
 20
-31.473065
 30
0.0
 10
277.367947
 20
-31.472964
 30
0.0
 10
277.240691
 20
-31.525580
 30
0.0
 10
277.146844
 20
-31.619332
 30
0.0
  0
SPLINE
  5
166
100
AcDbEntity
  8
0
 62
7
100
AcDbSpline
 70
8
 71
3
 72
8
 73
4
 74
0
 40
0
 40
0
 40
0
 40
0
 40
1
 40
1
 40
1
 40
1
 10
277.146844
 20
-31.619332
 30
0.0
 10
277.052997
 20
-31.713083
 30
0.0
 10
277.000251
 20
-31.840286
 30
0.0
 10
277.000218
 20
-31.972938
 30
0.0
  0
SPLINE
  5
167
100
AcDbEntity
  8
0
 62
7
100
AcDbSpline
 70
8
 71
3
 72
8
 73
4
 74
0
 40
0
 40
0
 40
0
 40
0
 40
1
 40
1
 40
1
 40
1
 10
276.499837
 20
-87.473058
 30
0.0
 10
276.632489
 20
-87.473159
 30
0.0
 10
276.759745
 20
-87.420542
 30
0.0
 10
276.853592
 20
-87.326791
 30
0.0
  0
SPLINE
  5
168
100
AcDbEntity
  8
0
 62
7
100
AcDbSpline
 70
8
 71
3
 72
8
 73
4
 74
0
 40
0
 40
0
 40
0
 40
0
 40
1
 40
1
 40
1
 40
1
 10
276.853592
 20
-87.326791
 30
0.0
 10
276.947439
 20
-87.233039
 30
0.0
 10
277.000184
 20
-87.105837
 30
0.0
 10
277.000218
 20
-86.973185
 30
0.0
  0
SPLINE
  5
169
100
AcDbEntity
  8
0
 62
7
100
AcDbSpline
 70
8
 71
3
 72
8
 73
4
 74
0
 40
0
 40
0
 40
0
 40
0
 40
1
 40
1
 40
1
 40
1
 10
212.500353
 20
-87.473058
 30
0.0
 10
212.367745
 20
-87.473091
 30
0.0
 10
212.240581
 20
-87.525802
 30
0.0
 10
212.146837
 20
-87.619594
 30
0.0
  0
SPLINE
  5
16a
100
AcDbEntity
  8
0
 62
7
100
AcDbSpline
 70
8
 71
3
 72
8
 73
4
 74
0
 40
0
 40
0
 40
0
 40
0
 40
1
 40
1
 40
1
 40
1
 10
212.146837
 20
-87.619594
 30
0.0
 10
212.053093
 20
-87.713386
 30
0.0
 10
212.000447
 20
-87.840576
 30
0.0
 10
212.000480
 20
-87.973184
 30
0.0
  0
SPLINE
  5
16b
100
AcDbEntity
  8
0
 62
7
100
AcDbSpline
 70
8
 71
3
 72
8
 73
4
 74
0
 40
0
 40
0
 40
0
 40
0
 40
1
 40
1
 40
1
 40
1
 10
211.500353
 20
-98.473056
 30
0.0
 10
211.632962
 20
-98.473090
 30
0.0
 10
211.760152
 20
-98.420444
 30
0.0
 10
211.853944
 20
-98.326699
 30
0.0
  0
SPLINE
  5
16c
100
AcDbEntity
  8
0
 62
7
100
AcDbSpline
 70
8
 71
3
 72
8
 73
4
 74
0
 40
0
 40
0
 40
0
 40
0
 40
1
 40
1
 40
1
 40
1
 10
211.853944
 20
-98.326699
 30
0.0
 10
211.947736
 20
-98.232955
 30
0.0
 10
212.000447
 20
-98.105791
 30
0.0
 10
212.000480
 20
-97.973183
 30
0.0
  0
SPLINE
  5
16d
100
AcDbEntity
  8
0
 62
7
100
AcDbSpline
 70
8
 71
3
 72
8
 73
4
 74
0
 40
0
 40
0
 40
0
 40
0
 40
1
 40
1
 40
1
 40
1
 10
64.000246
 20
-97.973183
 30
0.0
 10
64.000316
 20
-98.249226
 30
0.0
 10
64.224075
 20
-98.472986
 30
0.0
 10
64.500119
 20
-98.473056
 30
0.0
  0
SPLINE
  5
16e
100
AcDbEntity
  8
0
 62
7
100
AcDbSpline
 70
8
 71
3
 72
8
 73
4
 74
0
 40
0
 40
0
 40
0
 40
0
 40
1
 40
1
 40
1
 40
1
 10
64.000246
 20
-87.973184
 30
0.0
 10
64.000279
 20
-87.840532
 30
0.0
 10
63.947598
 20
-87.713303
 30
0.0
 10
63.853799
 20
-87.619504
 30
0.0
  0
SPLINE
  5
16f
100
AcDbEntity
  8
0
 62
7
100
AcDbSpline
 70
8
 71
3
 72
8
 73
4
 74
0
 40
0
 40
0
 40
0
 40
0
 40
1
 40
1
 40
1
 40
1
 10
63.853799
 20
-87.619504
 30
0.0
 10
63.760000
 20
-87.525705
 30
0.0
 10
63.632771
 20
-87.473024
 30
0.0
 10
63.500119
 20
-87.473058
 30
0.0
  0
SPLINE
  5
170
100
AcDbEntity
  8
0
 62
7
100
AcDbSpline
 70
8
 71
3
 72
8
 73
4
 74
0
 40
0
 40
0
 40
0
 40
0
 40
1
 40
1
 40
1
 40
1
 10
5.499999
 20
-86.973185
 30
0.0
 10
5.500069
 20
-87.249277
 30
0.0
 10
5.723906
 20
-87.473058
 30
0.0
 10
5.999999
 20
-87.473058
 30
0.0
  0
SPLINE
  5
171
100
AcDbEntity
  8
0
 62
7
100
AcDbSpline
 70
8
 71
3
 72
8
 73
4
 74
0
 40
0
 40
0
 40
0
 40
0
 40
1
 40
1
 40
1
 40
1
 10
5.999999
 20
-12.972966
 30
0.0
 10
5.867391
 20
-12.972966
 30
0.0
 10
5.740214
 20
-13.025644
 30
0.0
 10
5.646446
 20
-13.119412
 30
0.0
  0
SPLINE
  5
172
100
AcDbEntity
  8
0
 62
7
100
AcDbSpline
 70
8
 71
3
 72
8
 73
4
 74
0
 40
0
 40
0
 40
0
 40
0
 40
1
 40
1
 40
1
 40
1
 10
5.646446
 20
-13.119412
 30
0.0
 10
5.552678
 20
-13.213180
 30
0.0
 10
5.499999
 20
-13.340357
 30
0.0
 10
5.499999
 20
-13.472966
 30
0.0
  0
SPLINE
  5
173
100
AcDbEntity
  8
0
 62
7
100
AcDbSpline
 70
8
 71
3
 72
8
 73
4
 74
0
 40
0
 40
0
 40
0
 40
0
 40
1
 40
1
 40
1
 40
1
 10
19.250036
 20
-12.972966
 30
0.0
 10
19.382644
 20
-12.972966
 30
0.0
 10
19.509821
 20
-12.920287
 30
0.0
 10
19.603589
 20
-12.826519
 30
0.0
  0
SPLINE
  5
174
100
AcDbEntity
  8
0
 62
7
100
AcDbSpline
 70
8
 71
3
 72
8
 73
4
 74
0
 40
0
 40
0
 40
0
 40
0
 40
1
 40
1
 40
1
 40
1
 10
19.603589
 20
-12.826519
 30
0.0
 10
19.697357
 20
-12.732751
 30
0.0
 10
19.750036
 20
-12.605574
 30
0.0
 10
19.750036
 20
-12.472966
 30
0.0
  0
LWPOLYLINE
  5
175
100
AcDbEntity
  8
0
 62
7
100
AcDbPolyline
 90
2
 70
0
 10
30.998218
 20
-9.971163
 30
0.0
 10
31.498599
 20
-9.971163
 30
0.0
  0
SPLINE
  5
176
100
AcDbEntity
  8
0
 62
7
100
AcDbSpline
 70
8
 71
3
 72
8
 73
4
 74
0
 40
0
 40
0
 40
0
 40
0
 40
1
 40
1
 40
1
 40
1
 10
20.250035
 20
-3.872941
 30
0.0
 10
20.117427
 20
-3.872941
 30
0.0
 10
19.990250
 20
-3.925620
 30
0.0
 10
19.896482
 20
-4.019388
 30
0.0
  0
SPLINE
  5
177
100
AcDbEntity
  8
0
 62
7
100
AcDbSpline
 70
8
 71
3
 72
8
 73
4
 74
0
 40
0
 40
0
 40
0
 40
0
 40
1
 40
1
 40
1
 40
1
 10
19.896482
 20
-4.019388
 30
0.0
 10
19.802714
 20
-4.113156
 30
0.0
 10
19.750036
 20
-4.240333
 30
0.0
 10
19.750036
 20
-4.372941
 30
0.0
  0
LWPOLYLINE
  5
178
100
AcDbEntity
  8
0
 62
7
100
AcDbPolyline
 90
2
 70
0
 10
19.748537
 20
-4.472052
 30
0.0
 10
19.748537
 20
-4.370452
 30
0.0
  0
LWPOLYLINE
  5
179
100
AcDbEntity
  8
0
 62
7
100
AcDbPolyline
 90
2
 70
0
 10
30.497837
 20
-4.271392
 30
0.0
 10
30.497837
 20
-4.472052
 30
0.0
  0
SPLINE
  5
17a
100
AcDbEntity
  8
0
 62
7
100
AcDbSpline
 70
8
 71
3
 72
8
 73
4
 74
0
 40
0
 40
0
 40
0
 40
0
 40
1
 40
1
 40
1
 40
1
 10
30.500123
 20
-4.272941
 30
0.0
 10
30.500123
 20
-4.166846
 30
0.0
 10
30.457973
 20
-4.065097
 30
0.0
 10
30.382948
 20
-3.990081
 30
0.0
  0
SPLINE
  5
17b
100
AcDbEntity
  8
0
 62
7
100
AcDbSpline
 70
8
 71
3
 72
8
 73
4
 74
0
 40
0
 40
0
 40
0
 40
0
 40
1
 40
1
 40
1
 40
1
 10
30.382948
 20
-3.990081
 30
0.0
 10
30.307922
 20
-3.915065
 30
0.0
 10
30.206168
 20
-3.872928
 30
0.0
 10
30.100072
 20
-3.872941
 30
0.0
  0
LWPOLYLINE
  5
17c
100
AcDbEntity
  8
0
 62
7
100
AcDbPolyline
 90
2
 70
0
 10
20.797559
 20
-3.872611
 30
0.0
 10
30.099056
 20
-3.872611
 30
0.0
  0
LWPOLYLINE
  5
17d
100
AcDbEntity
  8
0
 62
7
100
AcDbPolyline
 90
2
 70
0
 10
31.498599
 20
-9.971163
 30
0.0
 10
57.498087
 20
-9.971163
 30
0.0
  0
LWPOLYLINE
  5
17e
100
AcDbEntity
  8
0
 62
7
100
AcDbPolyline
 90
2
 70
0
 10
118.498842
 20
-98.472548
 30
0.0
 10
127.998459
 20
-98.472548
 30
0.0
  0
LWPOLYLINE
  5
17f
100
AcDbEntity
  8
0
 62
7
100
AcDbPolyline
 90
2
 70
0
 10
118.498842
 20
-98.472548
 30
0.0
 10
65.499102
 20
-98.472548
 30
0.0
  0
LWPOLYLINE
  5
180
100
AcDbEntity
  8
0
 62
7
100
AcDbPolyline
 90
2
 70
0
 10
5.499110
 20
-82.473058
 30
0.0
 10
5.499110
 20
-14.972432
 30
0.0
  0
LWPOLYLINE
  5
181
100
AcDbEntity
  8
0
 62
7
100
AcDbPolyline
 90
2
 70
0
 10
280.398744
 20
-15.391533
 30
0.0
 10
278.600421
 20
-15.391533
 30
0.0
  0
LWPOLYLINE
  5
182
100
AcDbEntity
  8
0
 62
7
100
AcDbPolyline
 90
2
 70
0
 10
280.398744
 20
-13.392549
 30
0.0
 10
278.600421
 20
-13.392549
 30
0.0
  0
LWPOLYLINE
  5
183
100
AcDbEntity
  8
0
 62
7
100
AcDbPolyline
 90
2
 70
0
 10
280.398744
 20
-13.491609
 30
0.0
 10
280.398744
 20
-13.392549
 30
0.0
  0
LWPOLYLINE
  5
184
100
AcDbEntity
  8
0
 62
7
100
AcDbPolyline
 90
2
 70
0
 10
280.398744
 20
-13.491609
 30
0.0
 10
280.398744
 20
-15.391533
 30
0.0
  0
LWPOLYLINE
  5
185
100
AcDbEntity
  8
0
 62
7
100
AcDbPolyline
 90
2
 70
0
 10
278.600421
 20
-14.182491
 30
0.0
 10
278.600421
 20
-13.392549
 30
0.0
  0
LWPOLYLINE
  5
186
100
AcDbEntity
  8
0
 62
7
100
AcDbPolyline
 90
2
 70
0
 10
278.600421
 20
-15.201032
 30
0.0
 10
278.600421
 20
-15.391533
 30
0.0
  0
LWPOLYLINE
  5
187
100
AcDbEntity
  8
0
 62
7
100
AcDbPolyline
 90
2
 70
0
 10
278.600421
 20
-14.182491
 30
0.0
 10
278.600421
 20
-15.201032
 30
0.0
  0
LWPOLYLINE
  5
188
100
AcDbEntity
  8
0
 62
7
100
AcDbPolyline
 90
2
 70
0
 10
278.600421
 20
-26.892674
 30
0.0
 10
278.849341
 20
-26.892674
 30
0.0
  0
LWPOLYLINE
  5
189
100
AcDbEntity
  8
0
 62
7
100
AcDbPolyline
 90
2
 70
0
 10
278.600421
 20
-26.521834
 30
0.0
 10
278.600421
 20
-26.892674
 30
0.0
  0
LWPOLYLINE
  5
18a
100
AcDbEntity
  8
0
 62
7
100
AcDbPolyline
 90
2
 70
0
 10
280.398744
 20
-26.892674
 30
0.0
 10
280.149824
 20
-26.892674
 30
0.0
  0
LWPOLYLINE
  5
18b
100
AcDbEntity
  8
0
 62
7
100
AcDbPolyline
 90
2
 70
0
 10
280.398744
 20
-26.516754
 30
0.0
 10
280.398744
 20
-26.892674
 30
0.0
  0
LWPOLYLINE
  5
18c
100
AcDbEntity
  8
0
 62
7
100
AcDbPolyline
 90
2
 70
0
 10
280.398744
 20
-24.891151
 30
0.0
 10
280.149824
 20
-24.891151
 30
0.0
  0
LWPOLYLINE
  5
18d
100
AcDbEntity
  8
0
 62
7
100
AcDbPolyline
 90
2
 70
0
 10
280.398744
 20
-25.241671
 30
0.0
 10
280.398744
 20
-24.891151
 30
0.0
  0
LWPOLYLINE
  5
18e
100
AcDbEntity
  8
0
 62
7
100
AcDbPolyline
 90
2
 70
0
 10
278.600421
 20
-24.891151
 30
0.0
 10
278.849341
 20
-24.891151
 30
0.0
  0
LWPOLYLINE
  5
18f
100
AcDbEntity
  8
0
 62
7
100
AcDbPolyline
 90
2
 70
0
 10
278.600421
 20
-25.246751
 30
0.0
 10
278.600421
 20
-24.891151
 30
0.0
  0
LWPOLYLINE
  5
190
100
AcDbEntity
  8
0
 62
7
100
AcDbPolyline
 90
2
 70
0
 10
280.398744
 20
-21.142104
 30
0.0
 10
280.149824
 20
-21.142104
 30
0.0
  0
LWPOLYLINE
  5
191
100
AcDbEntity
  8
0
 62
7
100
AcDbPolyline
 90
2
 70
0
 10
280.398744
 20
-20.791583
 30
0.0
 10
280.398744
 20
-21.142104
 30
0.0
  0
LWPOLYLINE
  5
192
100
AcDbEntity
  8
0
 62
7
100
AcDbPolyline
 90
2
 70
0
 10
278.600421
 20
-21.142104
 30
0.0
 10
278.849341
 20
-21.142104
 30
0.0
  0
LWPOLYLINE
  5
193
100
AcDbEntity
  8
0
 62
7
100
AcDbPolyline
 90
2
 70
0
 10
278.600421
 20
-20.816983
 30
0.0
 10
278.600421
 20
-21.142104
 30
0.0
  0
LWPOLYLINE
  5
194
100
AcDbEntity
  8
0
 62
7
100
AcDbPolyline
 90
2
 70
0
 10
280.398744
 20
-19.140580
 30
0.0
 10
280.289524
 20
-19.140580
 30
0.0
  0
LWPOLYLINE
  5
195
100
AcDbEntity
  8
0
 62
7
100
AcDbPolyline
 90
2
 70
0
 10
280.398744
 20
-19.470780
 30
0.0
 10
280.398744
 20
-19.140580
 30
0.0
  0
LWPOLYLINE
  5
196
100
AcDbEntity
  8
0
 62
7
100
AcDbPolyline
 90
2
 70
0
 10
280.149824
 20
-19.140580
 30
0.0
 10
280.289524
 20
-19.140580
 30
0.0
  0
LWPOLYLINE
  5
197
100
AcDbEntity
  8
0
 62
7
100
AcDbPolyline
 90
2
 70
0
 10
278.600421
 20
-19.140580
 30
0.0
 10
278.600421
 20
-19.145660
 30
0.0
  0
LWPOLYLINE
  5
198
100
AcDbEntity
  8
0
 62
7
100
AcDbPolyline
 90
2
 70
0
 10
278.849341
 20
-19.140580
 30
0.0
 10
278.600421
 20
-19.140580
 30
0.0
  0
LWPOLYLINE
  5
199
100
AcDbEntity
  8
0
 62
7
100
AcDbPolyline
 90
2
 70
0
 10
278.600421
 20
-19.496180
 30
0.0
 10
278.600421
 20
-19.145660
 30
0.0
  0
LWPOLYLINE
  5
19a
100
AcDbEntity
  8
0
 62
7
100
AcDbPolyline
 90
2
 70
0
 10
278.600421
 20
-26.521834
 30
0.0
 10
278.600421
 20
-25.246751
 30
0.0
  0
LWPOLYLINE
  5
19b
100
AcDbEntity
  8
0
 62
7
100
AcDbPolyline
 90
2
 70
0
 10
280.149824
 20
-26.892674
 30
0.0
 10
278.849341
 20
-26.892674
 30
0.0
  0
LWPOLYLINE
  5
19c
100
AcDbEntity
  8
0
 62
7
100
AcDbPolyline
 90
2
 70
0
 10
280.398744
 20
-25.241671
 30
0.0
 10
280.398744
 20
-26.516754
 30
0.0
  0
LWPOLYLINE
  5
19d
100
AcDbEntity
  8
0
 62
7
100
AcDbPolyline
 90
2
 70
0
 10
278.849341
 20
-24.891151
 30
0.0
 10
280.149824
 20
-24.891151
 30
0.0
  0
LWPOLYLINE
  5
19e
100
AcDbEntity
  8
0
 62
7
100
AcDbPolyline
 90
2
 70
0
 10
280.398744
 20
-20.791583
 30
0.0
 10
280.398744
 20
-19.470780
 30
0.0
  0
LWPOLYLINE
  5
19f
100
AcDbEntity
  8
0
 62
7
100
AcDbPolyline
 90
2
 70
0
 10
278.600421
 20
-19.496180
 30
0.0
 10
278.600421
 20
-20.816983
 30
0.0
  0
LWPOLYLINE
  5
1a0
100
AcDbEntity
  8
0
 62
7
100
AcDbPolyline
 90
2
 70
0
 10
278.849341
 20
-21.142104
 30
0.0
 10
280.149824
 20
-21.142104
 30
0.0
  0
LWPOLYLINE
  5
1a1
100
AcDbEntity
  8
0
 62
7
100
AcDbPolyline
 90
2
 70
0
 10
278.849341
 20
-19.140580
 30
0.0
 10
280.149824
 20
-19.140580
 30
0.0
  0
ENDSEC
  0
SECTION
  2
OBJECTS
  0
DICTIONARY
  5
C
330
0
100
AcDbDictionary
  3
ACAD_GROUP
350
D
  3
ACAD_MLINESTYLE
350
17
  0
DICTIONARY
  5
D
330
C
100
AcDbDictionary
  0
DICTIONARY
  5
1A
330
C
100
AcDbDictionary
  0
DICTIONARY
  5
17
330
C
100
AcDbDictionary
  3
STANDARD
350
18
  0
DICTIONARY
  5
19
330
C
100
AcDbDictionary
  0
ENDSEC
  0
EOF
